<svg preserveAspectRatio="none" width="100%" height="100%" overflow="visible" style="display: block;" viewBox="0 0 27.3385 27.3385" fill="none" xmlns="http://www.w3.org/2000/svg">
<g id="Frame" clip-path="url(#clip0_0_58)">
<path id="Vector" d="M18.5048 9.27127C18.8191 9.27127 19.1284 9.29519 19.4394 9.32936C18.6021 5.4302 14.4347 2.53403 9.67612 2.53403C4.35706 2.53403 -1.51527e-05 6.15809 -1.51527e-05 10.7629C-1.51527e-05 13.4199 1.44893 15.6018 3.8718 17.2968L2.9047 20.2067L6.28785 18.5117C7.49758 18.7492 8.4681 18.9952 9.67612 18.9952C9.98026 18.9952 10.281 18.9816 10.5783 18.9594C10.3903 18.3118 10.2793 17.6351 10.2793 16.9295C10.281 12.7023 13.9102 9.27127 18.5048 9.27127ZM13.3036 6.64848C14.0349 6.64848 14.515 7.12861 14.515 7.8565C14.515 8.58097 14.0349 9.06623 13.3036 9.06623C12.5808 9.06623 11.8529 8.58097 11.8529 7.8565C11.8529 7.1269 12.5791 6.64848 13.3036 6.64848ZM6.53219 9.06623C5.80601 9.06623 5.0747 8.58097 5.0747 7.8565C5.0747 7.12861 5.80601 6.64848 6.53219 6.64848C7.25836 6.64848 7.74021 7.1269 7.74021 7.8565C7.74021 8.58097 7.25836 9.06623 6.53219 9.06623ZM27.3385 16.8133C27.3385 12.9449 23.4667 9.79241 19.1182 9.79241C14.5133 9.79241 10.8893 12.9466 10.8893 16.8133C10.8893 20.6919 14.515 23.8342 19.1182 23.8342C20.0818 23.8342 21.0541 23.5932 22.0212 23.3506L24.6747 24.8064L23.9468 22.3869C25.8896 20.9277 27.3385 18.9952 27.3385 16.8133ZM16.4492 15.6018C15.9691 15.6018 15.4821 15.1234 15.4821 14.6347C15.4821 14.1529 15.9691 13.6676 16.4492 13.6676C17.184 13.6676 17.6607 14.1529 17.6607 14.6347C17.6607 15.1234 17.184 15.6018 16.4492 15.6018ZM21.7717 15.6018C21.295 15.6018 20.8097 15.1234 20.8097 14.6347C20.8097 14.1529 21.2933 13.6676 21.7717 13.6676C22.4996 13.6676 22.9831 14.1529 22.9831 14.6347C22.9831 15.1234 22.4996 15.6018 21.7717 15.6018Z" fill="var(--fill-0, #AFAFAF)"/>
</g>
<defs>
<clipPath id="clip0_0_58">
<rect width="27.3385" height="27.3385" fill="white"/>
</clipPath>
</defs>
</svg>
