<svg preserveAspectRatio="none" width="100%" height="100%" overflow="visible" style="display: block;" viewBox="0 0 127.078 127.078" fill="none" xmlns="http://www.w3.org/2000/svg">
<path id="Union" opacity="0.6" d="M63.5391 0C98.6308 0 127.078 28.4474 127.078 63.5391C127.078 98.6308 98.6308 127.078 63.5391 127.078C28.4474 127.078 0 98.6308 0 63.5391C8.2465e-05 28.4474 28.4474 8.24757e-05 63.5391 0ZM63.5391 1C28.9997 1.00008 1.00008 28.9997 1 63.5391C1 98.0785 28.9997 126.078 63.5391 126.078C98.0785 126.078 126.078 98.0785 126.078 63.5391C126.078 28.9997 98.0785 1 63.5391 1ZM64.1504 16.2793C89.9716 16.6066 110.803 37.6402 110.803 63.5391L110.799 64.1504C110.472 89.9716 89.4379 110.803 63.5391 110.803L62.9277 110.799C37.31 110.474 16.604 89.7681 16.2793 64.1504L16.2754 63.5391C16.2754 37.4362 37.4362 16.2755 63.5391 16.2754L64.1504 16.2793ZM63.5391 17.2754C37.9885 17.2755 17.2754 37.9885 17.2754 63.5391C17.2754 89.0897 37.9885 109.803 63.5391 109.803C89.0897 109.803 109.803 89.0897 109.803 63.5391C109.803 37.9884 89.0897 17.2754 63.5391 17.2754ZM64.3848 30.791C82.0859 31.2396 96.2978 45.7298 96.2979 63.5391L96.2871 64.3848C95.8385 82.0859 81.3483 96.2978 63.5391 96.2979L62.6934 96.2871C45.2732 95.8456 31.2325 81.8049 30.791 64.3848L30.7803 63.5391C30.7804 45.4471 45.4471 30.7804 63.5391 30.7803L64.3848 30.791ZM63.5391 31.7803C45.9994 31.7804 31.7804 45.9994 31.7803 63.5391C31.7803 81.0788 45.9994 95.2978 63.5391 95.2979C81.0788 95.2978 95.2978 81.0788 95.2979 63.5391C95.2978 45.9994 81.0788 31.7803 63.5391 31.7803ZM63.5391 44.5684C74.0163 44.5685 82.5106 53.0619 82.5107 63.5391L82.5039 64.0293C82.2439 74.2801 73.8525 82.5106 63.5391 82.5107L63.0498 82.5039C52.7987 82.2442 44.5685 73.8527 44.5684 63.5391C44.5685 53.0619 53.0619 44.5685 63.5391 44.5684ZM63.5391 45.5684C53.6142 45.5685 45.5685 53.6142 45.5684 63.5391C45.5685 73.464 53.6142 81.5106 63.5391 81.5107C73.464 81.5106 81.5106 73.464 81.5107 63.5391C81.5106 53.6141 73.464 45.5685 63.5391 45.5684Z" fill="url(#paint0_linear_96_183691)"/>
<defs>
<linearGradient id="paint0_linear_96_183691" x1="75.5768" y1="63.5391" x2="127.078" y2="51.3339" gradientUnits="userSpaceOnUse">
<stop offset="0.265255" stop-color="#0D0F0E"/>
<stop offset="1" stop-color="#17FF92"/>
</linearGradient>
</defs>
</svg>
