<?xml version="1.0" encoding="utf-8"?>
<svg xmlns="http://www.w3.org/2000/svg" fill="none" height="100%" overflow="visible" preserveAspectRatio="none" style="display: block;" viewBox="0 0 288.28 64.839" width="100%">
<g id="Adong- ux designer">
<path d="M270.152 33.7514C270.536 33.495 270.664 33.1745 270.857 32.9181C272.395 30.931 273.741 28.8158 275.151 26.7647C276.369 24.9699 277.587 23.2392 278.997 21.5727C279.446 21.0599 279.894 20.483 280.471 20.0984C280.984 19.7779 281.497 19.5216 282.074 19.842C282.587 20.0984 282.715 20.6112 282.779 21.1881C282.779 21.4445 282.779 21.765 282.779 22.0855C282.779 22.6624 282.779 23.1752 282.779 23.752C282.715 25.3545 283.356 25.9955 285.343 25.9955C285.984 25.9955 286.625 25.675 287.202 25.2263C287.394 25.1622 287.522 25.034 287.65 24.9058C287.843 24.7776 288.035 24.6494 288.227 24.9058C288.355 25.0981 288.227 25.2904 288.099 25.4186C287.65 25.8673 287.138 26.2519 286.561 26.4442C285.407 26.8928 284.189 26.8287 283.035 26.316C282.01 25.9314 281.689 25.034 281.561 24.0084C281.433 23.1111 281.369 22.2137 281.305 21.3163C280.792 21.3163 280.535 21.7009 280.279 21.9573C278.42 23.8802 276.818 25.9314 275.343 28.0466C273.933 30.0978 272.523 32.1489 271.113 34.136C270.728 34.6487 270.344 35.0974 269.959 35.482C269.639 35.8666 269.254 36.123 268.741 35.9307C268.293 35.7384 268.1 35.2897 268.164 34.6487C268.357 33.4309 268.805 32.213 269.318 31.1233C270.216 29.0081 271.241 27.021 272.459 25.0981C272.587 24.8417 272.715 24.6494 272.972 24.4571C273.164 24.2007 273.485 24.1366 273.805 24.2648C274.126 24.4571 274.318 24.7135 274.254 25.0981C274.19 25.4827 273.997 25.8032 273.869 26.1237C272.715 28.3671 271.626 30.5465 270.472 32.7258C270.344 32.9822 270.152 33.3027 270.152 33.7514Z" fill="var(--fill-0, #3BF39D)" id="Vector"/>
<path d="M255.365 31.9566C255.301 30.8669 255.686 29.7773 256.135 28.8158C257.481 25.8673 259.404 23.4315 262.032 21.4445C262.544 21.124 263.057 20.8035 263.634 20.5471C264.083 20.3548 264.531 20.2907 264.98 20.3548C265.621 20.4189 266.006 20.8035 266.07 21.4445C266.134 22.0214 266.006 22.5342 265.749 23.047C264.339 25.3545 262.544 27.3415 260.301 28.8158C259.66 29.2645 258.891 29.585 258.122 29.2004C257.865 29.0722 257.673 29.2004 257.609 29.4568C257.096 30.4183 256.711 31.5079 256.776 32.6617C256.776 33.6873 257.417 34.2001 258.506 34.0719C259.596 33.8155 260.685 33.4309 261.711 32.854C265.493 30.6106 269.082 28.0466 272.416 25.1622C272.48 25.0981 272.544 25.034 272.608 24.9699C272.736 24.9058 272.864 24.8417 272.992 24.9058C273.121 25.034 273.121 25.1622 272.992 25.3545C272.8 25.675 272.544 25.9314 272.287 26.1878C270.813 27.4697 269.275 28.6235 267.672 29.7773C265.877 31.1233 264.019 32.4053 262.032 33.5591C261.134 34.136 260.173 34.5846 259.147 34.9051C256.711 35.6743 255.173 34.136 255.365 31.9566ZM264.66 21.8932C264.467 21.8932 264.403 21.8932 264.275 21.8932C264.083 22.0214 263.826 22.1496 263.634 22.2778C262.224 23.1752 261.07 24.393 259.98 25.675C259.468 26.316 259.019 27.021 258.57 27.662C258.506 27.7902 258.378 27.9184 258.506 28.1107C258.57 28.2389 258.763 28.303 258.955 28.2389C259.275 28.2389 259.468 28.0466 259.724 27.9184C260.942 27.1492 261.903 26.1237 262.865 25.034C263.634 24.1366 264.275 23.1752 264.66 21.8932Z" fill="var(--fill-0, #3BF39D)" id="Vector_2"/>
<path d="M241.66 29.0081C242.814 27.4056 243.904 25.7391 245.186 24.2648C245.891 23.3674 246.596 22.5342 247.429 21.765C247.814 21.3804 248.262 21.0599 248.711 20.8676C249.673 20.483 250.442 20.8676 250.57 21.8291C250.698 22.406 250.634 22.9188 250.57 23.4315C250.314 24.6494 250.057 25.9314 249.801 27.1492C249.609 28.1107 249.609 29.0081 249.673 29.9696C249.801 31.1233 250.314 31.4438 251.467 30.9951C251.788 30.8669 252.108 30.6746 252.429 30.4824C254.672 29.0722 256.788 27.4056 258.454 25.2904C258.646 25.0981 258.839 24.6494 259.095 24.8417C259.416 25.0981 259.031 25.4186 258.903 25.6109C257.621 27.4056 256.018 28.7517 254.288 30.0978C253.519 30.6746 252.685 31.2515 251.788 31.7002C250.121 32.5335 248.839 31.9566 248.455 30.0978C248.134 28.6235 248.262 27.0851 248.519 25.6109C248.711 24.9058 248.839 24.2007 248.968 23.4315C249.032 23.1751 249.032 22.9829 249.032 22.7265C249.032 22.406 248.839 22.3419 248.583 22.4701C248.327 22.7265 248.006 22.9188 247.75 23.1752C246.724 24.1366 245.827 25.1622 244.993 26.1878C242.622 29.0722 240.635 32.2771 238.776 35.482C238.584 35.7384 238.455 36.0589 238.199 36.3153C238.071 36.5076 237.814 36.6358 237.558 36.5076C237.238 36.4435 237.109 36.1871 237.109 35.9307C237.045 35.4179 237.173 34.9051 237.366 34.4564C237.943 32.5335 238.712 30.6746 239.673 28.8799C240.571 27.1492 241.468 25.4186 242.558 23.8161C242.814 23.3674 243.135 22.9829 243.519 22.6624C243.904 22.3419 244.352 22.3419 244.737 22.5983C245.058 22.9188 245.058 23.3674 244.801 23.6879C244.288 24.4571 243.904 25.2904 243.263 26.0596C242.558 26.8928 242.109 27.9825 241.66 29.0081Z" fill="var(--fill-0, #3BF39D)" id="Vector_3"/>
<path d="M228.393 25.2904C228.072 25.3545 228.008 25.675 227.816 25.8673C226.277 27.5979 224.803 29.3927 223.072 30.9951C222.624 31.5079 222.111 31.9566 221.47 32.2771C220.508 32.7258 219.675 32.2771 219.547 31.1874C219.547 30.4824 219.675 29.8414 219.932 29.2645C221.149 26.8287 222.88 24.8417 225.316 23.5597C226.149 23.111 227.046 22.8547 228.008 22.9188C228.585 22.9829 228.969 22.7906 229.354 22.3419C230.187 21.3163 231.021 20.3548 231.918 19.5215C232.367 19.0729 232.815 18.7524 233.392 18.496C234.225 18.1755 234.995 18.4319 235.443 19.2011C235.764 19.7138 235.892 20.2907 235.892 20.8676C236.02 22.9829 235.507 24.9699 234.931 26.8928C233.777 30.8669 232.174 34.7128 230.38 38.3664C230.059 39.0074 229.803 39.5843 230.315 40.2894C230.444 40.4817 230.508 40.8022 230.38 41.0586C230.38 41.315 230.251 41.5073 229.995 41.5714C229.739 41.5714 229.61 41.3791 229.546 41.1868C229.482 40.9945 229.482 40.8022 229.418 40.6099C229.098 40.674 229.098 40.9945 228.969 41.1868C226.341 46.1223 223.521 50.9938 220.188 55.4807C218.329 58.0446 216.278 60.4803 213.778 62.4674C212.881 63.1725 211.919 63.8135 210.894 64.2621C210.125 64.5826 209.355 64.839 208.522 64.839C207.112 64.839 205.958 64.3262 205.189 63.1084C204.099 61.4418 203.843 59.583 204.035 57.66C204.484 52.8526 206.343 48.5581 209.484 44.8404C211.663 42.2764 214.355 40.4817 217.624 39.6484C220.508 38.8792 223.393 38.4305 226.405 38.5587C226.662 38.5587 226.982 38.5587 227.303 38.6228C228.328 38.751 228.328 38.751 228.777 37.8537C230.059 35.1615 231.277 32.4053 232.302 29.6491C233.072 27.4697 233.777 25.3545 234.161 23.1111C234.29 22.4701 234.354 21.8291 234.482 21.1881C234.482 20.8676 234.482 20.5471 234.418 20.2266C234.225 19.7138 234.097 19.6497 233.584 19.9061C233.072 20.2266 232.559 20.6753 232.174 21.124C231.469 21.765 230.764 22.5342 230.123 23.2392C229.803 23.5597 229.674 23.8802 229.803 24.2648C229.931 24.8417 229.674 25.2904 229.354 25.7391C228.969 26.1878 228.777 26.1237 228.521 25.6109C228.521 25.4827 228.521 25.3545 228.393 25.2904ZM204.997 58.2369C204.997 59.5189 205.125 60.4803 205.445 61.4418C206.15 63.493 207.432 64.198 209.548 63.6212C210.125 63.4289 210.701 63.2366 211.15 62.9161C211.663 62.5956 212.112 62.2751 212.56 61.9546C214.227 60.7367 215.573 59.1984 216.855 57.5959C221.149 52.2758 224.483 46.3787 227.559 40.2894C227.816 39.7766 227.752 39.6484 227.046 39.5843C225.636 39.5202 224.162 39.5843 222.688 39.7766C220.444 40.1612 218.137 40.6099 216.022 41.5714C212.112 43.302 209.355 46.2505 207.368 49.9682C205.958 52.6604 205.125 55.4807 204.997 58.2369ZM221.214 31.0592C223.777 29.3927 225.508 26.9569 227.559 24.5212C224.675 25.5468 221.47 28.8799 221.214 31.0592Z" fill="var(--fill-0, #3BF39D)" id="Vector_4"/>
<path d="M208.626 32.0207C208.626 30.4824 209.074 29.0081 209.587 27.5979C210.42 25.4186 211.51 23.3674 212.728 21.3804C212.856 21.1881 213.048 20.9958 213.177 20.8035C213.497 20.483 213.882 20.4189 214.33 20.6753C214.715 20.9317 214.843 21.3163 214.651 21.765C214.459 22.2778 214.202 22.7265 213.882 23.1752C212.6 25.4186 211.51 27.7902 210.677 30.2901C210.356 31.1233 210.164 32.0207 210.164 32.9181C210.164 33.1745 210.228 33.495 210.292 33.7514C210.549 34.2641 210.933 34.4564 211.51 34.3282C212.407 34.2001 213.113 33.6873 213.818 33.1745C216.317 31.4438 218.689 29.5209 220.997 27.4056C221.638 26.7647 222.279 26.0596 222.791 25.2904C222.856 25.2263 222.92 25.0981 222.984 24.9699C223.112 24.9058 223.24 24.8417 223.368 24.9058C223.432 24.9699 223.496 25.0981 223.432 25.2263C223.304 25.5468 223.112 25.8032 222.92 26.1237C222.086 27.2774 220.997 28.303 219.907 29.2645C217.984 30.9951 215.997 32.5976 213.946 34.136C213.177 34.7128 212.343 35.1615 211.446 35.3538C210.485 35.5461 209.587 35.1615 209.074 34.2641C208.69 33.5591 208.562 32.7899 208.626 32.0207ZM216.189 16.5089C215.612 16.5089 215.292 16.0602 215.42 15.4834C215.612 14.6501 215.933 13.8168 216.51 13.1117C216.638 12.9194 216.83 12.7912 217.087 12.7271C217.471 12.5989 217.792 12.7271 217.984 12.9835C218.24 13.304 218.305 13.6245 218.112 13.945C217.92 14.2014 217.728 14.4578 217.471 14.7783C217.215 15.0347 216.958 15.2911 217.087 15.8039C217.215 16.1884 216.702 16.5089 216.189 16.5089Z" fill="var(--fill-0, #3BF39D)" id="Vector_5"/>
<path d="M205.831 22.2778C203.716 23.3033 201.857 24.4571 200.511 26.316C199.806 27.2774 199.422 28.303 199.357 29.4568C199.678 29.585 199.87 29.3286 200.127 29.2645C202.626 27.9184 205.255 26.7006 207.883 25.6109C208.716 25.2263 209.549 24.9699 210.446 24.7776C210.639 24.7135 210.831 24.6494 211.087 24.6494C211.216 24.7135 211.28 24.7776 211.28 24.9058C211.28 24.9699 211.28 25.0981 211.216 25.1622C211.023 25.2263 210.831 25.3545 210.575 25.4186C206.793 26.6365 203.332 28.5594 199.806 30.4183C199.229 30.6746 199.229 31.1233 199.293 31.6361C199.486 33.7514 199.87 35.8666 200.255 37.9818C200.575 39.7766 200.768 41.5073 200.832 43.302C200.896 44.2635 200.768 45.225 200.511 46.1864C200.383 46.5069 200.255 46.8274 200.063 47.0838C199.486 48.0453 198.524 48.3017 197.499 47.7889C197.05 47.5966 196.665 47.2761 196.281 46.8915C194.166 44.7763 192.627 42.2764 191.602 39.392C190.832 37.2768 191.281 35.3538 192.948 33.6873C193.589 33.1104 194.294 32.5976 195.063 32.1489C195.576 31.8284 196.088 31.4438 196.665 31.1874C197.242 30.8669 197.499 30.4824 197.435 29.7773C197.435 29.3927 197.499 28.944 197.563 28.4953C197.819 26.7006 198.652 25.2263 199.934 23.9443C201.473 22.5342 203.203 21.3804 205.19 20.6753C205.639 20.483 206.152 20.3548 206.601 20.3548C207.177 20.4189 207.626 20.5471 207.818 21.124C208.011 21.6368 207.69 22.0214 207.306 22.3419C206.985 22.5983 206.665 22.8547 206.344 23.1752C206.152 23.3033 205.96 23.4315 205.767 23.2393C205.575 23.1111 205.639 22.8547 205.703 22.6624C205.767 22.5983 205.767 22.5342 205.831 22.2778ZM198.973 44.1994C198.973 43.943 198.973 43.7507 198.973 43.5584C198.781 40.8022 198.332 38.0459 197.947 35.3538C197.755 34.3282 197.691 33.3668 197.499 32.4053C197.435 31.8925 197.306 31.8284 196.922 32.0848C195.576 32.854 194.294 33.6873 193.268 34.841C192.371 35.9307 191.986 37.1486 192.307 38.5587C192.819 40.9304 194.101 42.9174 195.64 44.7763C196.153 45.4813 196.794 46.1864 197.563 46.6351C198.268 47.0838 198.652 46.9556 198.845 46.1223C199.037 45.4813 198.973 44.8404 198.973 44.1994Z" fill="var(--fill-0, #3BF39D)" id="Vector_6"/>
<path d="M181.815 31.9566C181.751 30.8669 182.136 29.7773 182.584 28.8158C183.93 25.8673 185.853 23.4315 188.481 21.4445C188.994 21.124 189.507 20.8035 190.084 20.5471C190.532 20.3548 190.981 20.2907 191.43 20.3548C192.071 20.4189 192.455 20.8035 192.52 21.4445C192.584 22.0214 192.455 22.5342 192.199 23.047C190.789 25.3545 188.994 27.3415 186.751 28.8158C186.11 29.2645 185.341 29.585 184.571 29.2004C184.315 29.0722 184.123 29.2004 184.059 29.4568C183.546 30.4183 183.161 31.5079 183.225 32.6617C183.225 33.6873 183.866 34.2001 184.956 34.0719C186.046 33.8155 187.135 33.4309 188.161 32.854C191.943 30.6106 195.532 28.0466 198.865 25.1622C198.929 25.0981 198.993 25.034 199.058 24.9699C199.186 24.9058 199.314 24.8417 199.442 24.9058C199.57 25.034 199.57 25.1622 199.442 25.3545C199.25 25.675 198.993 25.9314 198.737 26.1878C197.263 27.4697 195.724 28.6235 194.122 29.7773C192.327 31.1233 190.468 32.4053 188.481 33.5591C187.584 34.136 186.622 34.5846 185.597 34.9051C183.161 35.6743 181.623 34.136 181.815 31.9566ZM191.109 21.8932C190.917 21.8932 190.853 21.8932 190.725 21.8932C190.532 22.0214 190.276 22.1496 190.084 22.2778C188.674 23.1752 187.52 24.393 186.43 25.675C185.917 26.316 185.469 27.021 185.02 27.662C184.956 27.7902 184.828 27.9184 184.956 28.1107C185.02 28.2389 185.212 28.303 185.405 28.2389C185.725 28.2389 185.917 28.0466 186.174 27.9184C187.392 27.1492 188.353 26.1237 189.315 25.034C190.084 24.1366 190.725 23.1752 191.109 21.8932Z" fill="var(--fill-0, #3BF39D)" id="Vector_7"/>
<path d="M176.688 23.4956C176.047 23.6879 175.983 23.6879 175.919 23.1752C175.854 22.5983 175.726 22.0855 175.085 21.8932C174.38 21.765 174.188 22.406 173.867 22.7906C171.688 25.4186 169.573 28.0466 167.137 30.4183C166.432 31.1233 165.663 31.7643 164.83 32.3412C164.445 32.5976 164.06 32.854 163.548 32.9181C162.778 33.0463 162.202 32.6617 162.073 31.8925C162.009 31.1874 162.202 30.6105 162.458 29.9696C163.035 28.6876 163.804 27.5979 164.765 26.5083C166.432 24.5212 168.291 22.7265 170.598 21.4445C171.752 20.8035 172.97 20.2907 174.316 20.3548C174.893 20.3548 175.149 19.9702 175.47 19.6497C177.201 17.2781 178.867 14.8424 180.598 12.4066C182.905 9.07353 185.085 5.61223 187.52 2.27912C187.969 1.70223 188.418 0.997151 188.931 0.484368C189.379 -0.0284195 189.7 -0.0925168 190.084 0.0997755C190.469 0.356169 190.533 0.804858 190.341 1.38174C190.212 1.70223 190.02 2.02273 189.828 2.34322C185.918 9.32992 182.2 16.4448 178.739 23.6238C176.303 28.6235 173.867 33.6232 171.944 38.8151C171.496 39.9689 171.111 41.1227 170.727 42.2764C170.663 42.5969 170.598 42.8533 170.919 43.1097C171.304 43.4302 170.983 43.7507 170.855 44.0712C170.598 44.4558 170.342 44.7763 169.893 44.7122C169.509 44.7122 169.252 44.3276 169.316 43.8148C169.316 43.3661 169.381 42.9174 169.509 42.4687C170.15 39.6484 171.239 37.0204 172.265 34.3282C173.611 30.9951 174.957 27.5979 176.431 24.3289C176.56 24.0725 176.624 23.752 176.688 23.4956C176.816 23.3033 176.944 23.1111 177.072 22.8547C179.059 18.6242 181.175 14.3937 183.482 10.2914C183.546 10.0991 183.739 9.97091 183.546 9.77861C183.482 9.84271 183.418 9.90681 183.354 9.97091C180.982 13.3681 178.483 16.7653 175.919 20.0984C175.662 20.483 175.726 20.6753 176.047 20.9317C176.816 21.4445 177.072 22.1496 176.752 23.047C176.688 23.1752 176.688 23.3674 176.688 23.4956ZM173.419 22.2778C173.162 22.1496 173.034 22.2137 172.97 22.2778C172.521 22.4701 172.137 22.6624 171.688 22.9188C168.547 24.8417 166.047 27.4697 163.996 30.5465C163.868 30.8028 163.74 30.9951 163.676 31.2515C163.612 31.3797 163.484 31.5079 163.612 31.6361C163.804 31.8284 163.932 31.7002 164.124 31.6361C164.765 31.3156 165.342 30.931 165.919 30.4824C168.74 28.1107 171.047 25.2263 173.419 22.2778Z" fill="var(--fill-0, #3BF39D)" id="Vector_8"/>
<path d="M133.266 28.944C133.714 28.4312 134.163 27.9184 134.612 27.4056C137.496 24.0084 140.573 20.8035 143.906 17.855C144.098 17.6627 144.355 17.4704 144.611 17.2781C144.867 17.1499 145.124 17.1499 145.316 17.3422C145.444 17.5986 145.444 17.7909 145.252 17.9832C144.419 18.7524 143.97 19.9702 142.816 20.4189C142.624 20.483 142.432 20.6753 142.304 20.8035C139.547 23.6238 136.791 26.4442 134.227 29.4568C133.65 30.0978 133.65 30.0978 134.099 30.8028C134.484 31.5079 134.996 32.213 135.573 32.7899C137.176 34.5205 139.547 34.5205 141.15 33.5591C143.842 31.8925 146.214 29.9055 148.329 27.5338C148.842 26.8929 149.29 26.1878 149.675 25.4186C149.803 25.2263 149.867 24.7776 150.188 24.9699C150.508 25.0981 150.252 25.4827 150.124 25.675C149.739 26.5724 149.29 27.3415 148.649 28.0466C146.662 30.226 144.547 32.2771 142.047 33.8796C138.906 35.8666 135.83 35.482 133.394 32.6617C133.073 32.2771 132.881 31.6361 132.368 31.6361C131.92 31.7002 131.663 32.3412 131.343 32.7258C129.484 34.9051 127.625 37.1486 125.894 39.5202C125.446 40.0971 124.933 40.6099 124.933 41.3791C124.933 41.6995 124.677 41.8277 124.42 41.6995C124.1 41.6354 123.971 41.4432 124.036 41.1868C124.1 40.7381 124.292 40.4176 124.484 40.033C125.382 38.6228 126.407 37.3409 127.433 35.9948C128.715 34.4564 129.933 32.9822 131.215 31.5079C131.727 30.8669 131.791 30.4183 131.407 29.6491C130.125 27.1492 129.356 24.4571 128.779 21.765C128.587 20.8035 128.779 20.4189 129.356 20.2907C129.933 20.2266 130.381 20.5471 130.574 21.3804C131.15 23.6879 131.856 25.9314 132.753 28.1107C132.881 28.3671 132.945 28.7517 133.266 28.944Z" fill="var(--fill-0, #3BF39D)" id="Vector_9"/>
<path d="M105.968 33.6232C106.738 33.2386 107.25 32.7258 107.763 32.213C109.686 30.2901 111.417 28.2389 113.147 26.2519C114.814 24.2007 116.545 22.2137 118.211 20.1625C118.532 19.7779 118.916 19.4574 119.301 19.2011C120.198 18.6242 121.096 19.137 121.16 20.1625C121.224 20.6112 121.096 20.9958 120.967 21.3804C120.519 22.9188 120.006 24.4571 119.621 26.1237C119.365 27.0851 119.301 28.0466 119.173 29.0081C119.108 29.7132 119.173 30.3542 119.365 30.9951C119.557 31.572 119.878 31.8284 120.519 31.8284C121.031 31.8284 121.48 31.7643 121.865 31.572C124.108 30.6105 126.095 29.3286 127.89 27.7261C128.723 27.021 129.428 26.1878 129.941 25.2263C130.005 25.034 130.133 24.7776 130.39 24.9058C130.582 25.034 130.582 25.2263 130.518 25.4186C130.262 26.0596 129.941 26.6365 129.428 27.1492C127.249 29.6491 124.557 31.4438 121.48 32.6617C119.685 33.3668 118.339 32.6617 117.762 30.8028C117.25 29.2645 117.378 27.7261 117.634 26.1237C117.891 24.9699 118.211 23.8161 118.596 22.6624C118.66 22.406 118.724 22.1496 118.66 21.8291C118.019 22.5342 117.314 23.1752 116.673 23.8802C113.917 26.8288 111.096 29.8414 108.34 32.854C107.827 33.3668 107.314 33.8796 106.802 34.3282C106.545 34.5846 106.289 34.7769 105.968 34.9051C105.199 35.2897 104.494 34.9051 104.366 34.0078C104.238 33.3668 104.366 32.6617 104.558 32.0207C105.007 30.6105 105.584 29.2645 106.289 27.9825C107.571 25.675 108.981 23.4956 110.712 21.4445C110.968 21.124 111.224 20.8035 111.609 20.6753C111.994 20.4189 112.442 20.483 112.763 20.8676C113.147 21.1881 113.211 21.6368 112.891 22.0214C112.058 22.9188 111.673 24.1366 110.583 24.7776C110.455 24.8417 110.391 24.9699 110.263 25.0981C108.725 27.4697 107.25 29.9696 106.161 32.5976C106.097 32.7899 106.032 32.9822 105.968 33.2386C105.904 33.3027 105.968 33.3668 105.968 33.6232Z" fill="var(--fill-0, #3BF39D)" id="Vector_10"/>
<path d="M76.6274 27.7261C80.9219 27.7902 85.2806 27.8543 89.5752 27.9184C89.8957 27.9184 90.2803 27.9184 90.6649 28.0466C91.0495 28.1748 91.3059 28.4312 91.2418 28.8799C91.2418 29.2645 90.9213 29.4568 90.6008 29.5209C90.2803 29.585 90.0239 29.6491 89.7675 29.6491C88.4855 29.6491 87.2677 29.7132 86.0498 29.585C83.4859 29.4568 80.922 29.4568 78.4221 29.4568C76.1146 29.4568 73.807 29.4568 71.5636 29.3286C71.1149 29.2645 70.7303 29.2645 70.3457 29.0722C70.0252 28.944 69.897 28.6876 69.897 28.303C69.9611 27.9825 70.2175 27.8543 70.4739 27.7902C70.7944 27.7902 71.0508 27.7261 71.3072 27.7261C73.102 27.7261 74.8967 27.7261 76.6274 27.7261Z" fill="var(--fill-0, #3BF39D)" id="Vector_11"/>
<path d="M56.6292 25.2904C56.3087 25.3545 56.2446 25.675 56.0523 25.8673C54.514 27.5979 53.0397 29.3927 51.3091 30.9951C50.8604 31.5079 50.3476 31.9566 49.7066 32.2771C48.7451 32.7258 47.9119 32.2771 47.7837 31.1874C47.7837 30.4824 47.9119 29.8414 48.1682 29.2645C49.3861 26.8287 51.1168 24.8417 53.5525 23.5597C54.3858 23.111 55.2832 22.8547 56.2446 22.9188C56.8215 22.9829 57.2061 22.7906 57.5907 22.3419C58.424 21.3163 59.2572 20.3548 60.1546 19.5215C60.6033 19.0729 61.052 18.7524 61.6289 18.496C62.4622 18.1755 63.2313 18.4319 63.68 19.2011C64.0005 19.7138 64.1287 20.2907 64.1287 20.8676C64.2569 22.9829 63.7441 24.9699 63.1672 26.8928C62.0135 30.8669 60.411 34.7128 58.6163 38.3664C58.2958 39.0074 58.0394 39.5843 58.5522 40.2894C58.6804 40.4817 58.7445 40.8022 58.6163 41.0586C58.6163 41.315 58.4881 41.5073 58.2317 41.5714C57.9753 41.5714 57.8471 41.3791 57.783 41.1868C57.7189 40.9945 57.7189 40.8022 57.6548 40.6099C57.3343 40.674 57.3343 40.9945 57.2061 41.1868C54.5781 46.1223 51.7577 50.9938 48.4246 55.4807C46.5658 58.0446 44.5146 60.4803 42.0148 62.4674C41.1174 63.1725 40.156 63.8135 39.1304 64.2621C38.3612 64.5826 37.592 64.839 36.7588 64.839C35.3486 64.839 34.1948 64.3262 33.4256 63.1084C32.336 61.4418 32.0796 59.583 32.2719 57.66C32.7206 52.8526 34.5794 48.5581 37.7202 44.8404C39.8996 42.2764 42.5917 40.4817 45.8607 39.6484C48.7451 38.8792 51.6295 38.4305 54.6422 38.5587C54.8986 38.5587 55.2191 38.5587 55.5396 38.6228C56.5651 38.751 56.5651 38.751 57.0138 37.8537C58.2958 35.1615 59.5136 32.4053 60.5392 29.6491C61.3084 27.4697 62.0135 25.3545 62.3981 23.1111C62.5263 22.4701 62.5904 21.8291 62.7186 21.1881C62.7186 20.8676 62.7185 20.5471 62.6545 20.2266C62.4622 19.7138 62.334 19.6497 61.8212 19.9061C61.3084 20.2266 60.7956 20.6753 60.411 21.124C59.7059 21.765 59.0008 22.5342 58.3599 23.2392C58.0394 23.5597 57.9112 23.8802 58.0394 24.2648C58.1676 24.8417 57.9112 25.2904 57.5907 25.7391C57.2061 26.1878 57.0138 26.1237 56.7574 25.6109C56.7574 25.4827 56.7574 25.3545 56.6292 25.2904ZM33.2334 58.2369C33.2334 59.5189 33.3615 60.4803 33.682 61.4418C34.3871 63.493 35.6691 64.198 37.7843 63.6212C38.3612 63.4289 38.9381 63.2366 39.3868 62.9161C39.8996 62.5956 40.3483 62.2751 40.7969 61.9546C42.4635 60.7367 43.8096 59.1984 45.0915 57.5959C49.3861 52.2758 52.7192 46.3787 55.7959 40.2894C56.0523 39.7766 55.9882 39.6484 55.2832 39.5843C53.873 39.5202 52.3987 39.5843 50.9245 39.7766C48.681 40.1612 46.3735 40.6099 44.2583 41.5714C40.3483 43.302 37.592 46.2505 35.605 49.9682C34.1948 52.6604 33.3616 55.4807 33.2334 58.2369ZM49.4502 31.0592C52.0141 29.3927 53.7448 26.9569 55.7959 24.5212C52.9115 25.5468 49.7066 28.8799 49.4502 31.0592Z" fill="var(--fill-0, #3BF39D)" id="Vector_12"/>
<path d="M34.6555 29.0081C35.8093 27.4056 36.899 25.7391 38.1809 24.2648C38.886 23.3674 39.5911 22.5342 40.4244 21.765C40.809 21.3804 41.2577 21.0599 41.7063 20.8676C42.6678 20.483 43.437 20.8676 43.5652 21.8291C43.6934 22.406 43.6293 22.9188 43.5652 23.4315C43.3088 24.6494 43.0524 25.9314 42.796 27.1492C42.6037 28.1107 42.6037 29.0081 42.6678 29.9696C42.796 31.1233 43.3088 31.4438 44.4626 30.9951C44.7831 30.8669 45.1035 30.6746 45.424 30.4824C47.6675 29.0722 49.7827 27.4056 51.4493 25.2904C51.6416 25.0981 51.8339 24.6494 52.0903 24.8417C52.4108 25.0981 52.0262 25.4186 51.898 25.6109C50.616 27.4056 49.0135 28.7517 47.2829 30.0978C46.5137 30.6746 45.6804 31.2515 44.7831 31.7002C43.1165 32.5335 41.8345 31.9566 41.4499 30.0978C41.1295 28.6235 41.2576 27.0851 41.514 25.6109C41.7063 24.9058 41.8345 24.2007 41.9627 23.4315C42.0268 23.1751 42.0268 22.9829 42.0268 22.7265C42.0268 22.406 41.8345 22.3419 41.5781 22.4701C41.3218 22.7265 41.0013 22.9188 40.7449 23.1752C39.7193 24.1366 38.8219 25.1622 37.9886 26.1878C35.617 29.0722 33.63 32.2771 31.7711 35.482C31.5788 35.7384 31.4506 36.0589 31.1942 36.3153C31.066 36.5076 30.8096 36.6358 30.5532 36.5076C30.2328 36.4435 30.1045 36.1871 30.1045 35.9307C30.0405 35.4179 30.1686 34.9051 30.3609 34.4564C30.9378 32.5335 31.707 30.6746 32.6685 28.8799C33.5659 27.1492 34.4632 25.4186 35.5529 23.8161C35.8093 23.3674 36.1298 22.9829 36.5144 22.6624C36.899 22.3419 37.3477 22.3419 37.7322 22.5983C38.0527 22.9188 38.0527 23.3674 37.7963 23.6879C37.2836 24.4571 36.899 25.2904 36.258 26.0596C35.5529 26.8928 35.1042 27.9825 34.6555 29.0081Z" fill="var(--fill-0, #3BF39D)" id="Vector_13"/>
<path d="M18.6004 34.2641C18.6645 32.9822 19.0491 31.7643 19.5619 30.6106C20.7157 27.9825 22.1258 25.5468 23.9847 23.4315C24.3052 23.1111 24.3693 22.8547 24.1129 22.4701C23.8565 21.9573 23.6642 21.3804 23.6642 20.7394C23.6001 20.1625 23.8565 19.6497 24.3693 19.3934C24.882 19.137 25.5871 19.3293 25.9717 19.7779C26.4845 20.3548 26.7409 20.9958 26.8691 21.6368C26.9973 22.2137 27.1255 22.8547 27.0614 23.4956C26.9973 24.0084 27.2537 24.3289 27.7665 24.5212C29.6894 25.1622 31.6765 25.4186 33.7276 25.2904C34.1122 25.2263 34.4968 25.034 34.8814 24.8417C35.0096 24.7776 35.1378 24.7776 35.266 24.9699C35.3301 25.1622 35.2019 25.2904 35.0737 25.3545C34.6891 25.7391 34.2404 25.8673 33.7276 25.9314C32.5738 26.1878 31.4842 25.9955 30.3304 25.8673C29.433 25.7391 28.5356 25.6109 27.7024 25.2904C26.9332 25.0981 26.8691 25.0981 26.7409 25.9314C25.9717 29.1363 24.6257 32.0207 22.5745 34.6487C22.254 35.0974 21.8694 35.5461 21.4848 35.8666C20.908 36.3153 20.3311 36.6358 19.6901 36.3794C18.9209 36.0589 18.6645 35.4179 18.6004 34.6487C18.6004 34.5205 18.6004 34.3923 18.6004 34.2641ZM25.7153 24.8417C25.3948 25.4827 24.6257 25.675 24.2411 26.1878C22.5745 28.5594 21.2284 31.0592 20.4593 33.8155C20.3311 34.2001 20.0106 34.7769 20.3952 35.0333C20.7798 35.2256 21.1643 34.6487 21.4207 34.3923C23.0873 32.7258 24.1129 30.7387 24.882 28.6235C25.3948 27.4056 25.7153 26.1878 25.7153 24.8417ZM24.882 21.124C24.882 21.3804 24.9461 21.6368 25.1384 21.8932C25.2025 22.0214 25.3307 22.0855 25.4589 22.0214C25.5871 22.0214 25.6512 21.8932 25.6512 21.765C25.7153 21.4445 25.523 21.2522 25.3948 20.9958C25.3307 20.8676 25.2025 20.6753 25.0743 20.7394C24.882 20.8035 24.882 20.9958 24.882 21.124Z" fill="var(--fill-0, #3BF39D)" id="Vector_14"/>
<path d="M14.6268 23.4956C13.9858 23.6879 13.9217 23.6879 13.8576 23.1752C13.7935 22.5983 13.6654 22.0855 13.0244 21.8932C12.3193 21.765 12.127 22.406 11.8065 22.7906C9.62716 25.4186 7.51192 28.0466 5.07618 30.4183C4.3711 31.1233 3.60193 31.7643 2.76865 32.3412C2.38406 32.5976 1.99947 32.854 1.48668 32.9181C0.717502 33.0463 0.14062 32.6617 0.0124232 31.8925C-0.0516752 31.1874 0.14062 30.6105 0.397013 29.9696C0.973898 28.6876 1.74307 27.5979 2.70455 26.5083C4.3711 24.5212 6.22996 22.7265 8.53749 21.4445C9.69126 20.8035 10.9091 20.2907 12.2552 20.3548C12.8321 20.3548 13.0885 19.9702 13.409 19.6497C15.1396 17.2781 16.8062 14.8424 18.5368 12.4066C20.8444 9.07353 23.0237 5.61223 25.4594 2.27912C25.9081 1.70223 26.3568 0.997151 26.8696 0.484368C27.3183 -0.0284195 27.6388 -0.0925168 28.0234 0.0997755C28.408 0.356169 28.4721 0.804858 28.2798 1.38174C28.1516 1.70223 27.9593 2.02273 27.767 2.34322C23.857 9.32992 20.1393 16.4448 16.678 23.6238C14.2422 28.6235 11.8065 33.6232 9.88356 38.8151C9.43487 39.9689 9.05028 41.1227 8.66569 42.2764C8.60159 42.5969 8.53749 42.8533 8.85798 43.1097C9.24257 43.4302 8.92208 43.7507 8.79389 44.0712C8.53749 44.4558 8.2811 44.7763 7.83241 44.7122C7.44782 44.7122 7.19143 44.3276 7.25553 43.8148C7.25553 43.3661 7.31962 42.9174 7.44782 42.4687C8.0888 39.6484 9.17847 37.0204 10.204 34.3282C11.5501 30.9951 12.8962 27.5979 14.3704 24.3289C14.4986 24.0725 14.5627 23.752 14.6268 23.4956C14.755 23.3033 14.8832 23.1111 15.0114 22.8547C16.9985 18.6242 19.1137 14.3937 21.4212 10.2914C21.4853 10.0991 21.6776 9.97091 21.4853 9.77861C21.4212 9.84271 21.3571 9.90681 21.293 9.97091C18.9214 13.3681 16.4216 16.7653 13.8576 20.0984C13.6013 20.483 13.6654 20.6753 13.9858 20.9317C14.755 21.4445 15.0114 22.1496 14.6909 23.047C14.6268 23.1752 14.6268 23.3674 14.6268 23.4956ZM11.3578 22.2778C11.1014 22.1496 10.9732 22.2137 10.9091 22.2778C10.4604 22.4701 10.0758 22.6624 9.62716 22.9188C6.48635 24.8417 3.98651 27.4697 1.93537 30.5465C1.80717 30.8028 1.67898 30.9951 1.61488 31.2515C1.55078 31.3797 1.42258 31.5079 1.55078 31.6361C1.74307 31.8284 1.87127 31.7002 2.06356 31.6361C2.70455 31.3156 3.28143 30.931 3.85832 30.4824C6.67864 28.1107 8.98618 25.2263 11.3578 22.2778Z" fill="var(--fill-0, #3BF39D)" id="Vector_15"/>
</g>
</svg>