<?xml version="1.0" encoding="utf-8"?>
<svg xmlns="http://www.w3.org/2000/svg" fill="none" height="100%" overflow="visible" preserveAspectRatio="none" style="display: block;" viewBox="0 0 36 36" width="100%">
<g id="  1">
<path d="M31.4607 16.1468C30.6221 16.6106 29.4222 16.8425 28.4206 16.9557C30.0087 15.6076 31.551 14.0693 32.1738 12.1334C33.0205 9.50988 33.0461 7.07647 32.2547 4.47724C32.2209 4.3665 32.1565 4.26755 32.069 4.19172C31.9815 4.11589 31.8744 4.06626 31.7599 4.04851C31.6458 4.02931 31.5286 4.04295 31.4219 4.08782C31.3152 4.1327 31.2234 4.20697 31.1573 4.30198C29.0582 7.29083 26.2837 9.19575 23.2517 9.76063C24.1577 7.93658 25.158 5.87795 24.9423 3.72767C24.9314 3.61022 24.887 3.49837 24.8144 3.40541C24.7419 3.31244 24.6441 3.24227 24.5328 3.20323C24.4215 3.16419 24.3013 3.15791 24.1866 3.18515C24.0718 3.2124 23.9673 3.27201 23.8854 3.35691C20.6714 6.63022 18.1045 7.32049 15.0064 7.3744C11.5848 7.43373 8.31693 9.01108 6.04124 11.7033C3.78714 14.3727 2.78815 17.8158 3.30314 21.1498C4.13093 26.5141 8.13362 30.5289 13.5033 31.3769C14.1676 31.4828 14.8393 31.536 15.512 31.536C19.9218 31.536 23.8786 29.2037 26.1395 25.1525C26.397 24.6928 26.8203 24.2398 27.3002 23.9122C29.4843 22.4171 31.0616 20.4838 31.9918 18.1637C32.1212 17.8428 32.2156 17.4491 32.2979 17.0986L32.3612 16.8357C32.3916 16.7187 32.3869 16.5954 32.3476 16.481C32.3082 16.3667 32.2361 16.2665 32.1401 16.193C32.0441 16.1195 31.9286 16.0759 31.808 16.0677C31.6874 16.0595 31.567 16.087 31.462 16.1468H31.4607ZM4.56906 20.2385C5.08811 21.867 8.27243 22.413 8.27243 22.413C5.61388 25.2684 4.56906 20.2385 4.56906 20.2385ZM12.2603 22.413C12.2603 22.413 18.7597 21.6608 21.3495 19.4215C21.3495 19.4215 17.5774 28.0227 12.2603 22.413Z" fill="var(--fill-0, white)" id="Vector"/>
</g>
</svg>