<?xml version="1.0" encoding="utf-8"?>
<svg xmlns="http://www.w3.org/2000/svg" fill="none" height="100%" overflow="visible" preserveAspectRatio="none" style="display: block;" viewBox="0 0 142.945 180.105" width="100%">
<path d="M66.085 0.5C87.8268 0.5 104.579 4.53743 116.277 12.6787C128.149 20.6924 134.089 32.2127 134.089 47.1748C134.089 57.5262 131.388 66.127 125.954 72.9385C120.583 79.6702 112.578 84.6088 101.986 87.7852V88.3018C115.175 90.2489 125.188 94.6535 131.96 101.568L132.606 102.218C139.177 108.996 142.444 117.931 142.444 128.972C142.444 145.253 135.993 157.799 123.096 166.546C110.226 175.273 91.9353 179.604 68.2842 179.604H0.5V0.5H66.085ZM42.3984 141.664H63.4463C75.1419 141.664 84.0687 140.127 90.2725 137.098L90.2764 137.096C93.4473 135.582 95.7918 133.743 97.3428 131.593C98.8898 129.448 99.667 126.968 99.667 124.134C99.6669 121.529 98.8957 119.257 97.3555 117.297C95.8092 115.329 93.4678 113.65 90.2939 112.279L90.2812 112.274C84.0751 109.388 75.0719 107.923 63.2266 107.923H42.3984V141.664ZM42.3984 69.9824H61.0283C70.8119 69.9824 78.2625 68.5206 83.4326 65.6484C88.5729 62.7927 91.0918 58.7703 91.0918 53.5518C91.0918 51.1535 90.4581 49.0559 89.2012 47.2402C87.941 45.4201 86.0356 43.8572 83.4521 42.5654L83.4443 42.5615L83.4375 42.5576C78.4142 39.8307 71.036 38.4405 61.248 38.4404H42.3984V69.9824Z" id="Vector" stroke="var(--stroke-0, white)"/>
</svg>