<?xml version="1.0" encoding="utf-8"?>
<svg xmlns="http://www.w3.org/2000/svg" fill="none" height="100%" overflow="visible" preserveAspectRatio="none" style="display: block;" viewBox="0 0 19.6 19.6" width="100%">
<g id="Frame">
<path d="M7.64854 8.72376C8.4133 10.0686 9.53148 11.1867 10.8763 11.9515L11.5986 10.9402C11.8388 10.6041 12.2921 10.5002 12.6547 10.6982C13.8036 11.3258 15.0733 11.7072 16.3978 11.8121C16.8225 11.8457 17.15 12.2002 17.15 12.6262V16.2708C17.15 16.6895 16.8333 17.0404 16.4168 17.0832C15.984 17.1277 15.5475 17.15 15.1083 17.15C8.11733 17.15 2.45 11.4827 2.45 4.49172C2.45 4.05257 2.47239 3.61601 2.51688 3.18322C2.55968 2.76671 2.91055 2.45005 3.32926 2.45005H6.97386C7.3999 2.45005 7.75436 2.77756 7.78798 3.20227C7.89281 4.52673 8.27422 5.79646 8.90183 6.94534C9.09987 7.30791 8.99599 7.76127 8.65985 8.0014L7.64854 8.72376ZM5.58947 8.1873L7.1411 7.07899C6.70113 6.12925 6.39963 5.12204 6.24527 4.08338H4.09074C4.08581 4.21921 4.08333 4.35533 4.08333 4.49172C4.08333 10.5806 9.01943 15.5167 15.1083 15.5167C15.2447 15.5167 15.3809 15.5143 15.5167 15.5093V13.3548C14.478 13.2004 13.4708 12.8989 12.5211 12.459L11.4128 14.0106C10.9644 13.8364 10.5314 13.6314 10.1164 13.3984L10.0689 13.3713C8.46859 12.4613 7.13876 11.1315 6.22872 9.53112L6.20172 9.48367C5.9686 9.06864 5.76366 8.63565 5.58947 8.1873Z" fill="var(--fill-0, white)" id="Vector"/>
</g>
</svg>