<?xml version="1.0" encoding="utf-8"?>
<svg xmlns="http://www.w3.org/2000/svg" fill="none" height="100%" overflow="visible" preserveAspectRatio="none" style="display: block;" viewBox="0 0 22 22" width="100%">
<g id="Frame">
<path d="M9.0798 20.1889C5.07912 20.1889 1.83594 16.9454 1.83594 12.9443C1.83594 9.60268 4.09779 6.64146 7.17441 5.95289C10.7689 5.14841 12.4029 4.51686 13.6615 2.00342C14.5769 3.77733 13.9583 5.40396 13.6627 6.29105C17.9682 5.25611 19.5021 3.28333 19.8716 3.03836C19.8716 6.66068 18.7428 8.95235 17.6541 10.4308C19.007 10.3801 19.4952 9.98731 20.1693 9.89326C19.8716 11.2208 18.7934 13.0922 16.1992 14.2883C15.5692 17.6473 12.6213 20.1889 9.0798 20.1889ZM12.48 14.2749C12.48 14.5706 12.4312 14.7185 12.1104 14.7185L9.22264 14.7203L11.937 11.7431C12.7249 10.9549 12.7249 10.5609 12.7249 9.55391C12.7249 9.2474 12.6812 8.89713 12.7688 8.59065C12.8125 8.4593 12.7249 8.41551 12.5937 8.4593C12.2871 8.54686 11.7618 8.54686 10.8863 8.54686H6.94618C6.72728 8.54686 6.63973 8.41551 6.72728 8.24038C6.72728 8.19659 6.72728 8.06524 6.63972 8.06524C6.0706 8.32795 5.93927 9.51009 5.98304 10.2544C5.98304 10.6485 6.20194 10.8674 6.50839 10.8674H9.61672L6.42083 14.2824C6.20194 14.5452 5.98304 14.8954 5.98304 15.377V16.3403C5.98304 16.7782 6.24572 17.0409 6.72728 17.1284H12.2161C12.7249 17.1284 13.0714 16.9144 13.0714 16.3449V15.3098C13.0714 15.1187 13.0714 14.4228 12.48 14.2749Z" fill="var(--fill-0, #FF9F38)" id="Vector"/>
</g>
</svg>