<?xml version="1.0" encoding="utf-8"?>
<svg xmlns="http://www.w3.org/2000/svg" fill="none" height="100%" overflow="visible" preserveAspectRatio="none" style="display: block;" viewBox="0 0 166.472 186.261" width="100%">
<path d="M83.2363 0.5C100.023 0.500046 114.627 4.25538 127.03 11.7852L128.198 12.501C140.175 19.9911 149.378 30.5281 155.807 44.0967L156.433 45.4043C162.798 58.983 165.972 74.8965 165.972 93.1309C165.972 111.953 162.589 128.374 155.808 142.38C149.171 156.243 139.579 166.947 127.03 174.477L127.029 174.476C114.626 182.005 100.023 185.762 83.2363 185.762C66.4487 185.762 51.7713 182.006 39.2227 174.477L39.2197 174.475C26.8193 166.946 17.2275 156.243 10.4453 142.384L10.4424 142.379C3.8081 128.373 0.500018 111.952 0.5 93.1309C0.5 74.3095 3.80811 57.9609 10.4434 44.1006L10.4443 44.0986C17.2261 30.0928 26.8178 19.3159 39.2197 11.7861L39.2227 11.7852C51.7713 4.25605 66.4487 0.5 83.2363 0.5ZM83.2363 39.7598C70.9281 39.7598 61.1822 44.5271 53.9502 54.0732C46.8533 63.6345 43.2773 76.6364 43.2773 93.1309C43.2774 109.625 46.8535 122.626 53.9502 132.188C61.1822 141.734 70.928 146.502 83.2363 146.502C95.5443 146.502 105.214 141.734 112.299 132.191L112.302 132.188C119.545 122.626 123.194 109.625 123.194 93.1309C123.194 76.6362 119.545 63.6344 112.302 54.0732L112.299 54.0703V54.0693C105.214 44.5268 95.5442 39.7598 83.2363 39.7598Z" id="Vector" stroke="var(--stroke-0, white)"/>
</svg>