<?xml version="1.0" encoding="utf-8"?>
<svg xmlns="http://www.w3.org/2000/svg" fill="none" height="100%" overflow="visible" preserveAspectRatio="none" style="display: block;" viewBox="0 0 49 36" width="100%">
<g id="Frame 1937104136">
<path d="M47.2129 6C48.1595 6 48.9275 6.76729 48.9277 7.71387V28.2861C48.9275 29.2327 48.1595 30 47.2129 30H1.78418C0.837737 29.9998 0.0705382 29.2326 0.0703125 28.2861V7.71387C0.0705387 6.76743 0.837737 6.00023 1.78418 6H47.2129ZM19.4902 24.75C19.4902 25.1462 19.6481 25.5206 19.9277 25.8008C20.0645 25.9391 20.2275 26.0485 20.4072 26.123C20.5868 26.1975 20.7792 26.2363 20.9736 26.2354H24.4414V23.3594C24.1039 23.7122 23.3858 23.9588 23.0195 23.959H22.4639V16.4053H19.4902V24.75ZM9.50098 10.2861C9.36406 10.8264 8.92034 11.999 7.53711 13.1699L7.32812 13.3096C6.84496 13.6118 6.40599 13.7498 6.07031 13.8115L7.94629 16.3799C8.12124 16.2962 8.30297 16.2009 8.50195 16.0889L8.94141 15.8408V26.2344H11.7363V14.5312H10.5049L10.8857 14.0518C12.1632 12.4405 12.5088 10.8398 12.5938 10.2861H9.50098ZM15.4004 12.583H12.8379V14.8896H14.9795L12.9219 26.2344H16.0928L18.1445 14.8896H24.3975V10.2939H21.5283V12.583H18.5605L18.9766 10.2939H15.8145L15.4004 12.583ZM26.7988 16.3232H27.7734V23.6924L26.7988 23.9492V26.2344L31.5371 24.9844V22.7021L30.5615 22.959V16.3232H31.5371V14.0176H26.7988V16.3232ZM33.1992 19.7168H39.3584C38.5047 21.9015 36.1473 23.5017 33.7021 23.7842C33.6179 23.791 33.5328 23.7939 33.4482 23.7939C32.9941 23.7939 32.5522 23.7075 32.249 23.6123L33.0381 26.1201C35.0504 26.1201 36.6683 25.6771 37.9648 24.9854C39.2586 25.6737 40.8745 26.1201 42.8828 26.1201L43.6719 23.6123C43.2832 23.7307 42.879 23.7919 42.4727 23.7939C42.3891 23.7939 42.305 23.7913 42.2188 23.7842H42.2178C41.5333 23.7023 40.8637 23.5248 40.2285 23.2568C42.265 21.1026 42.8465 18.3957 42.8467 17.6104H33.1992V19.7168ZM33.6738 12.3857C33.6738 13.1792 33.3528 14.4031 32.0703 14.7852L34.0566 16.8848C36.1965 15.1777 36.3808 13.4869 36.4082 12.9092L36.418 12.3359H39.6045V15.1865C39.6045 15.5827 39.7594 15.955 40.04 16.2363C40.177 16.3749 40.3406 16.4847 40.5205 16.5596C40.7005 16.6344 40.8939 16.6734 41.0889 16.6729H43.8105V14.1182C43.1642 14.585 42.3641 14.5852 42.3262 14.585V10.2861H33.6738V12.3857ZM26.7998 12.3408H31.5381V10.2949H26.7998V12.3408Z" fill="var(--fill-0, white)" id="Exclude"/>
</g>
</svg>