<?xml version="1.0" encoding="utf-8"?>
<svg xmlns="http://www.w3.org/2000/svg" fill="none" height="100%" overflow="visible" preserveAspectRatio="none" style="display: block;" viewBox="0 0 24 24" width="100%">
<g clip-path="url(#clip0_0_11703)" id="system-regular-58-call-phone-hover-phone-ring 3">
<g id="system-regular-47-chat-hover-chat (1) 1">
<g id="Group">
<path d="M11.7476 15.9991C12.7422 15.9991 13.696 15.604 14.3993 14.9008C15.1025 14.1975 15.4976 13.2437 15.4976 12.2491C15.4976 11.2546 15.1025 10.3007 14.3993 9.59748C13.696 8.89421 12.7422 8.49913 11.7476 8.49913C10.753 8.49913 9.79921 8.89421 9.09595 9.59748C8.39269 10.3007 7.9976 11.2546 7.9976 12.2491C7.9976 13.2437 8.39269 14.1975 9.09595 14.9008C9.79921 15.604 10.753 15.9991 11.7476 15.9991Z" id="Vector" stroke="var(--stroke-0, black)" stroke-miterlimit="10" stroke-width="1.5"/>
<path d="M16.4956 20.4681C14.6064 21.4441 12.4387 21.7394 10.3573 21.3043C8.27592 20.8692 6.40798 19.7303 5.06795 18.0793C3.72792 16.4283 2.99763 14.366 3.00001 12.2397C3.00238 10.1133 3.73729 8.05266 5.08101 6.40466C6.42473 4.75667 8.29521 3.62194 10.3776 3.19151C12.4599 2.76108 14.627 3.06122 16.514 4.04142C18.401 5.02161 19.8926 6.622 20.7378 8.57317C21.5831 10.5243 21.7302 12.7071 21.1546 14.7541C20.8426 15.8661 19.7416 16.4991 18.5866 16.4991C17.7673 16.4989 16.9816 16.1732 16.4023 15.5937C15.823 15.0143 15.4976 14.2285 15.4976 13.4091V8.47413" id="Vector_2" stroke="var(--stroke-0, black)" stroke-linecap="round" stroke-linejoin="round" stroke-width="1.5"/>
</g>
</g>
</g>
<defs>
<clipPath id="clip0_0_11703">
<rect fill="white" height="24" width="24"/>
</clipPath>
</defs>
</svg>