<?xml version="1.0" encoding="utf-8"?>
<svg xmlns="http://www.w3.org/2000/svg" fill="none" height="100%" overflow="visible" preserveAspectRatio="none" style="display: block;" viewBox="0 0 19.6 19.6" width="100%">
<g id="Frame">
<path d="M8.16775 11.9852C8.16751 11.9684 8.16742 11.9516 8.16742 11.9347C8.16742 9.88621 9.81423 8.16316 12.049 7.66113C11.7521 5.78101 9.76744 4.24668 7.26907 4.24668C4.55724 4.24668 2.45074 6.05436 2.45074 8.14981C2.45074 8.94149 2.74501 9.70205 3.29994 10.3538C3.32606 10.3845 3.36822 10.4303 3.42457 10.4883C3.90799 10.9856 4.19523 11.634 4.2429 12.3158C4.82527 11.9792 5.5066 11.8518 6.17257 11.9554C6.308 11.9765 6.41883 11.9926 6.50342 12.0036C6.75468 12.0363 7.01036 12.0529 7.26907 12.0529C7.57718 12.0529 7.87747 12.0296 8.16775 11.9852ZM8.54072 13.5788C8.12959 13.6492 7.70437 13.6862 7.26907 13.6862C6.93704 13.6862 6.61087 13.6648 6.29235 13.6233C6.19282 13.6103 6.06916 13.5923 5.92137 13.5693C5.6161 13.5218 5.30367 13.5829 5.03984 13.7419L3.48427 14.6792C3.36503 14.7528 3.22488 14.7864 3.08476 14.7749C2.72609 14.7453 2.45956 14.4341 2.48944 14.0798L2.61212 12.6254C2.6432 12.2571 2.51253 11.8933 2.25338 11.6267C2.17376 11.5448 2.10808 11.4735 2.05632 11.4127C1.27726 10.4976 0.817407 9.36983 0.817407 8.14981C0.817407 5.0921 3.70592 2.61334 7.26907 2.61334C10.584 2.61334 13.315 4.75876 13.6794 7.51982C16.4333 7.64516 18.6208 9.57383 18.6208 11.9347C18.6208 12.9089 18.2482 13.8096 17.6171 14.5403C17.5751 14.5889 17.5219 14.6458 17.4574 14.7112C17.2475 14.9241 17.1416 15.2146 17.1668 15.5088L17.2662 16.6703C17.2904 16.9532 17.0745 17.2017 16.7839 17.2253C16.6704 17.2345 16.5569 17.2077 16.4603 17.1489L15.2001 16.4004C14.9863 16.2734 14.7332 16.2246 14.4859 16.2626C14.3662 16.281 14.266 16.2952 14.1854 16.3056C13.9273 16.3388 13.663 16.356 13.3941 16.356C11.1943 16.356 9.31198 15.2065 8.54072 13.5788ZM14.2382 14.6481C14.7015 14.5771 15.173 14.6274 15.6068 14.7908C15.7201 14.3328 15.9554 13.9082 16.2944 13.5644C16.3355 13.5228 16.365 13.4912 16.381 13.4727C16.7797 13.011 16.9874 12.4819 16.9874 11.9347C16.9874 10.4611 15.4336 9.14672 13.3941 9.14672C11.3546 9.14672 9.80076 10.4611 9.80076 11.9347C9.80076 13.4082 11.3546 14.7227 13.3941 14.7227C13.5912 14.7227 13.786 14.7102 13.9772 14.6856C14.0431 14.6772 14.1306 14.6646 14.2382 14.6481Z" fill="var(--fill-0, white)" id="Vector"/>
</g>
</svg>