<?xml version="1.0" encoding="utf-8"?>
<svg xmlns="http://www.w3.org/2000/svg" fill="none" height="100%" overflow="visible" preserveAspectRatio="none" style="display: block;" viewBox="0 0 36 36" width="100%">
<g id="Frame">
<path d="M18.234 13.41C17.748 12.51 17.208 11.61 16.632 10.764C14.688 7.848 12.906 6.354 12.15 5.796C8.478 7.56 5.724 10.962 4.806 15.048C10.278 15.426 14.796 14.562 18.234 13.41ZM20.214 12.672C20.88 12.402 21.474 12.114 22.032 11.844C24.66 10.548 26.478 9.162 27.468 8.316C25.02 5.94 21.69 4.464 18.018 4.464C16.776 4.464 15.552 4.644 14.4 4.95C15.858 6.228 18.072 8.622 20.214 12.672ZM21.132 14.526C21.564 15.462 21.996 16.47 22.41 17.568C25.02 16.992 28.044 16.74 31.518 16.992C31.32 14.328 30.366 11.88 28.836 9.864C27.756 10.782 25.83 12.258 23.04 13.644C22.464 13.95 21.816 14.238 21.132 14.526ZM12.87 21.852C14.688 20.502 17.154 19.062 20.376 18.09C20.016 17.136 19.62 16.2 19.188 15.264C16.074 16.344 12.132 17.19 7.434 17.19C6.498 17.19 5.526 17.154 4.518 17.082C4.5 17.388 4.482 17.676 4.482 17.982C4.482 21.438 5.778 24.588 7.902 26.982C8.766 25.722 10.368 23.742 12.87 21.852ZM23.112 19.548C24.03 22.338 24.84 25.578 25.452 29.322C28.854 27.09 31.176 23.364 31.518 19.08C29.016 18.882 26.1 18.918 23.112 19.548ZM21.078 20.052C18.702 20.754 16.344 21.852 14.112 23.508C11.61 25.398 10.116 27.378 9.414 28.458C11.754 30.384 14.742 31.536 18.018 31.536C19.98 31.536 21.834 31.122 23.508 30.366C23.058 27.306 22.302 23.688 21.078 20.052Z" fill="var(--fill-0, white)" id="Vector"/>
</g>
</svg>