<?xml version="1.0" encoding="utf-8"?>
<svg xmlns="http://www.w3.org/2000/svg" fill="none" height="100%" overflow="visible" preserveAspectRatio="none" style="display: block;" viewBox="0 0 145.363 183.183" width="100%">
<path d="M42.3984 0.5V106.983C42.3985 118.186 45.161 127.076 50.6357 133.706L51.1533 134.304C56.5618 140.379 63.7218 143.424 72.6816 143.424C82.0838 143.424 89.4109 140.248 94.7266 133.927L94.7314 133.922L95.2363 133.321C100.372 127.044 102.965 118.576 102.965 107.863V0.5H144.863V109.402C144.863 124.418 141.918 137.472 136.011 148.551L136.012 148.552C130.249 159.634 121.895 168.137 110.959 174.048L110.957 174.049C100.17 179.812 87.4057 182.683 72.6816 182.683C57.9575 182.683 45.1216 179.811 34.1895 174.05L34.1816 174.046C23.3936 168.135 15.042 159.635 9.13379 148.557L9.13184 148.552C3.37101 137.473 0.500045 124.418 0.5 109.402V0.5H42.3984Z" id="Vector" stroke="var(--stroke-0, white)"/>
</svg>