<?xml version="1.0" encoding="utf-8"?>
<svg xmlns="http://www.w3.org/2000/svg" fill="none" height="100%" overflow="visible" preserveAspectRatio="none" style="display: block;" viewBox="0 0 22 22" width="100%">
<g id="Frame">
<path d="M9.17166 2.09842C7.88689 1.68252 6.49023 2.26102 5.87584 3.4636L5.13721 4.90934C5.04944 5.08112 4.90973 5.22083 4.73795 5.30859L3.29221 6.04722C2.08964 6.66162 1.51113 8.05828 1.92703 9.34304L2.42703 10.8876C2.48644 11.0711 2.48644 11.2688 2.42703 11.4523L1.92703 12.9969C1.51113 14.2817 2.08964 15.6783 3.29221 16.2928L4.73795 17.0313C4.90973 17.1191 5.04944 17.2588 5.13721 17.4306L5.87584 18.8764C6.49023 20.079 7.88689 20.6575 9.17166 20.2416L10.7162 19.7415C10.8998 19.6821 11.0974 19.6821 11.2809 19.7415L12.8255 20.2416C14.1103 20.6575 15.5069 20.079 16.1214 18.8764L16.8599 17.4306C16.9477 17.2588 17.0874 17.1191 17.2592 17.0313L18.705 16.2928C19.9076 15.6783 20.4861 14.2817 20.0702 12.9969L19.5701 11.4523C19.5107 11.2688 19.5107 11.0711 19.5701 10.8876L20.0702 9.34304C20.4861 8.05828 19.9076 6.66162 18.705 6.04722L17.2592 5.30859C17.0874 5.22083 16.9477 5.08112 16.8599 4.90934L16.1214 3.4636C15.5069 2.26102 14.1103 1.68252 12.8255 2.09842L11.2809 2.59842C11.0974 2.65782 10.8998 2.65783 10.7162 2.59842L9.17166 2.09842ZM6.19503 10.9475L7.4914 9.65104L10.0841 12.2438L15.2696 7.05839L16.5659 8.35475L10.0841 14.8365L6.19503 10.9475Z" fill="var(--fill-0, #79C551)" id="Vector"/>
</g>
</svg>