<?xml version="1.0" encoding="utf-8"?>
<svg xmlns="http://www.w3.org/2000/svg" fill="none" height="100%" overflow="visible" preserveAspectRatio="none" style="display: block;" viewBox="0 0 36 36" width="100%">
<g id="Frame">
<path d="M28.5256 9.69788L19.367 4.41948C18.4057 3.86017 16.8502 3.86017 15.8889 4.41948L6.73034 9.69788C5.78652 10.2572 5 11.603 5 12.7041V23.2784C5 24.3795 5.78652 25.7253 6.73034 26.2846L15.8889 31.5805C16.8502 32.1398 18.4057 32.1398 19.367 31.5805L28.5256 26.2846C29.4869 25.7253 30.2559 24.3795 30.2559 23.2784V12.7041C30.2559 11.603 29.4869 10.2572 28.5256 9.69788ZM20.6255 18C20.6255 21.3733 17.8989 24.0999 14.5256 24.0999C11.1523 24.0999 8.42572 21.3733 8.42572 18V13.3333C8.42572 12.5293 9.07241 11.8826 9.8764 11.8826C10.6804 11.8826 11.3271 12.5293 11.3271 13.3333V18C11.3271 19.7828 12.7603 21.216 14.5431 21.216C16.3258 21.216 17.7591 19.7828 17.7591 18V13.3333C17.7591 12.5293 18.4057 11.8826 19.2097 11.8826C20.0137 11.8826 20.6604 12.5293 20.6604 13.3333V18H20.6255ZM26.8477 22.6492C26.8477 23.4532 26.201 24.0999 25.397 24.0999C24.593 24.0999 23.9463 23.4532 23.9463 22.6492V13.3333C23.9463 12.5293 24.593 11.8826 25.397 11.8826C26.201 11.8826 26.8477 12.5293 26.8477 13.3333V22.6492Z" fill="var(--fill-0, white)" id="Vector"/>
</g>
</svg>