<?xml version="1.0" encoding="utf-8"?>
<svg xmlns="http://www.w3.org/2000/svg" fill="none" height="100%" overflow="visible" preserveAspectRatio="none" style="display: block;" viewBox="0 0 27.0034 18.0022" width="100%">
<path d="M22.8336 18.0022C22.6421 18.0022 22.4496 17.9934 22.2575 17.9756C19.4357 17.7149 16.6978 17.1454 14.1544 16.29C11.6688 15.4548 9.40739 14.3638 7.43243 13.0472C5.45747 11.7306 3.82099 10.2229 2.56819 8.56589C1.28513 6.87024 0.430884 5.04498 0.0399068 3.16378C-0.0424611 2.76943 0.00300752 2.36789 0.173244 1.98625C0.343481 1.60462 0.634525 1.25177 1.02674 0.951505C1.41649 0.652816 1.89779 0.413323 2.43818 0.249182C2.97857 0.0850417 3.56548 7.08625e-05 4.15931 1.14696e-06H9.10248C9.72316 -0.000471408 10.3242 0.145091 10.7997 0.411049C11.2752 0.677006 11.5947 1.0463 11.7018 1.45387L12.2828 3.64853C12.5603 4.69738 11.8974 5.77282 10.5937 6.38842L10.1205 6.61191C11.9312 8.45227 14.3205 10.0334 17.1104 11.2374L17.4201 10.9447C18.3429 10.0725 19.9581 9.6288 21.5347 9.81418L24.8226 10.2011C25.434 10.2725 25.9879 10.4854 26.3869 10.8024C26.7858 11.1194 27.0042 11.5201 27.0034 11.9339V15.2293C27.0033 15.6253 26.8758 16.0165 26.6295 16.3768C26.3833 16.7371 26.024 17.058 25.5759 17.3178C24.8157 17.7591 23.8416 18.0022 22.8336 18.0022ZM4.15931 1.50235C3.60225 1.50235 3.09335 1.65706 2.72644 1.93805C2.54583 2.07637 2.41181 2.2389 2.33343 2.41468C2.25504 2.59046 2.23411 2.77541 2.27205 2.95704C3.72983 9.95165 12.0757 15.5156 22.5678 16.4875C22.8402 16.5128 23.1176 16.4989 23.3813 16.4467C23.6449 16.3944 23.8887 16.3051 24.0961 16.1846C24.5176 15.94 24.7497 15.6008 24.7497 15.2293V11.9339C24.7499 11.8734 24.718 11.8149 24.6597 11.7685C24.6014 11.7222 24.5204 11.6911 24.4311 11.6806L24.431 11.6806L21.1431 11.2937C20.4217 11.2091 19.6836 11.4119 19.2617 11.8106L18.3414 12.6805C18.0038 12.9997 17.3553 13.0932 16.8498 12.8952C13.0532 11.4082 9.86603 9.29779 7.63303 6.79224C7.333 6.45567 7.47117 6.02189 7.9504 5.79557L9.29111 5.16245C9.8872 4.88093 10.1905 4.38922 10.0635 3.90965L9.48249 1.71495C9.46687 1.65534 9.42017 1.60133 9.35065 1.56244C9.28113 1.52354 9.19323 1.50226 9.10248 1.50235H4.15931Z" fill="var(--fill-0, black)" id="Vector"/>
</svg>