<?xml version="1.0" encoding="utf-8"?>
<svg xmlns="http://www.w3.org/2000/svg" fill="none" height="100%" overflow="visible" preserveAspectRatio="none" style="display: block;" viewBox="0 0 24 24" width="100%">
<g clip-path="url(#clip0_0_11707)" id="system-regular-58-call-phone-hover-phone-ring 3">
<g id="Clip path group">
<mask height="24" id="mask0_0_11707" maskUnits="userSpaceOnUse" style="mask-type:luminance" width="24" x="0" y="0">
<g id="a">
<path d="M0 0H24V24H0V0Z" fill="var(--fill-0, white)" id="Vector"/>
</g>
</mask>
<g mask="url(#mask0_0_11707)">
<g id="Group">
<g id="Clip path group_2">
<mask height="24" id="mask1_0_11707" maskUnits="userSpaceOnUse" style="mask-type:luminance" width="24" x="0" y="0">
<g id="f">
<path d="M0 0H24V24H0V0Z" fill="var(--fill-0, white)" id="Vector_2"/>
</g>
</mask>
<g mask="url(#mask1_0_11707)">
<g id="Group_2">
<g id="Group_3">
<path d="M18.2216 20.8884C18.0939 20.8884 17.9656 20.8796 17.8375 20.8618C15.9563 20.6012 14.1311 20.0317 12.4354 19.1763C10.7784 18.3411 9.27077 17.25 7.95413 15.9334C6.63749 14.6168 5.5465 13.1091 4.7113 11.4521C3.85593 9.75648 3.28643 7.93122 3.02578 6.05002C2.97086 5.65567 3.00118 5.25413 3.11467 4.87249C3.22816 4.49086 3.42219 4.138 3.68366 3.83774C3.9435 3.53905 4.26437 3.29956 4.62463 3.13542C4.98489 2.97128 5.37616 2.88631 5.77205 2.88624H9.06749C9.48128 2.88577 9.88196 3.03133 10.199 3.29729C10.516 3.56325 10.7289 3.93254 10.8004 4.34011L11.1877 6.53477C11.3727 7.58362 10.9308 8.65906 10.0617 9.27466L9.74616 9.49814C10.9533 11.3385 12.5461 12.9196 14.4061 14.1236L14.6125 13.831C15.2278 12.9587 16.3046 12.515 17.3556 12.7004L19.5476 13.0873C19.9552 13.1587 20.3245 13.3717 20.5904 13.6887C20.8564 14.0057 21.0019 14.4064 21.0014 14.8201V18.1156C21.0014 18.5115 20.9164 18.9028 20.7522 19.2631C20.588 19.6233 20.3485 19.9442 20.0498 20.204C19.543 20.6453 18.8936 20.8884 18.2216 20.8884ZM5.77205 4.38859C5.40067 4.38859 5.06141 4.5433 4.8168 4.82429C4.69639 4.96261 4.60705 5.12514 4.55479 5.30092C4.50253 5.4767 4.48858 5.66165 4.51387 5.84328C5.48573 12.8379 11.0496 18.4018 18.0444 19.3737C18.226 19.3991 18.4109 19.3852 18.5867 19.3329C18.7624 19.2807 18.925 19.1913 19.0632 19.0709C19.3442 18.8262 19.499 18.487 19.499 18.1156V14.8201C19.4991 14.7597 19.4778 14.7011 19.4389 14.6548C19.4001 14.6084 19.3461 14.5773 19.2865 14.5668L19.2865 14.5668L17.0946 14.18C16.6136 14.0953 16.1216 14.2981 15.8403 14.6969L15.2268 15.5667C15.0017 15.8859 14.5693 15.9794 14.2324 15.7814C11.7013 14.2944 9.57653 12.184 8.08786 9.67848C7.88784 9.3419 7.97995 8.90813 8.29944 8.68181L9.19325 8.04869C9.59064 7.76717 9.79282 7.27546 9.70814 6.79589L9.32083 4.60118C9.31042 4.54158 9.27929 4.48757 9.23294 4.44868C9.18659 4.40978 9.12799 4.3885 9.06749 4.38859H5.77205Z" fill="var(--fill-0, black)" id="Vector_3"/>
</g>
</g>
</g>
</g>
</g>
</g>
</g>
</g>
<defs>
<clipPath id="clip0_0_11707">
<rect fill="white" height="24" width="24"/>
</clipPath>
</defs>
</svg>