<?xml version="1.0" encoding="utf-8"?>
<svg xmlns="http://www.w3.org/2000/svg" fill="none" height="100%" overflow="visible" preserveAspectRatio="none" style="display: block;" viewBox="0 0 19.6 19.6" width="100%">
<g clip-path="url(#clip0_0_11712)" id="Frame">
<path d="M16.9159 6.63798L16.7146 7.09995C16.5672 7.43816 16.0994 7.43816 15.952 7.09995L15.7507 6.63798C15.3918 5.81426 14.7453 5.15842 13.9386 4.79964L13.3182 4.52372C12.9828 4.37452 12.9828 3.88638 13.3182 3.73719L13.9039 3.47669C14.7314 3.10867 15.3894 2.42857 15.7422 1.57687L15.9489 1.07764C16.0931 0.729704 16.5736 0.729704 16.7177 1.07764L16.9244 1.57687C17.2772 2.42857 17.9353 3.10867 18.7628 3.47669L19.3484 3.73719C19.6839 3.88638 19.6839 4.37452 19.3484 4.52372L18.728 4.79964C17.9213 5.15842 17.2749 5.81426 16.9159 6.63798ZM1.63334 3.26669C1.63334 2.81566 1.99898 2.45002 2.45 2.45002H11.4333V4.08335H3.67925L9.8 9.52399L13.3918 6.3313L14.477 7.55207L9.8 11.7094L3.26667 5.90194V15.5167H16.3333V8.98335H17.9667V16.3334C17.9667 16.7844 17.601 17.15 17.15 17.15H2.45C1.99898 17.15 1.63334 16.7844 1.63334 16.3334V3.26669Z" fill="var(--fill-0, white)" id="Vector"/>
</g>
<defs>
<clipPath id="clip0_0_11712">
<rect fill="white" height="19.6" width="19.6"/>
</clipPath>
</defs>
</svg>